<svg width="84" height="42" viewBox="0 0 84 42" fill="none" xmlns="http://www.w3.org/2000/svg">
<path d="M18.8569 19.8126V27.6337C18.8569 27.7604 18.8065 27.882 18.7169 27.9717C18.6273 28.0613 18.5057 28.1117 18.379 28.1117H15.9108C15.784 28.1116 15.6625 28.0612 15.5729 27.9716C15.4833 27.882 15.4329 27.7604 15.4329 27.6337V14.9123C15.4329 14.7855 15.4832 14.6639 15.5729 14.5743C15.6625 14.4846 15.784 14.4343 15.9108 14.4343H18.1948C18.3216 14.4343 18.4431 14.4846 18.5327 14.5743C18.6224 14.6639 18.6727 14.7855 18.6727 14.9123V16.7038C18.6727 16.7038 19.4892 14.1483 21.9123 14.1483C21.9123 14.1483 24.3091 13.8585 25.2836 16.5194C25.2836 16.5194 26.1001 14.1483 28.5759 14.1483C28.5759 14.1483 32.2577 13.9293 32.2577 17.7401L32.2858 19.8389V27.66C32.2858 27.7868 32.2354 27.9084 32.1458 27.998C32.0562 28.0877 31.9346 28.138 31.8079 28.138H29.3395C29.2127 28.138 29.0912 28.0876 29.0016 27.998C28.912 27.9083 28.8616 27.7868 28.8616 27.66L28.839 19.1276C28.9092 17.1955 27.3466 17.3361 27.3466 17.3361C25.3801 17.3713 25.5693 19.8389 25.5693 19.8389V27.66C25.5693 27.7868 25.519 27.9084 25.4293 27.998C25.3397 28.0877 25.2182 28.138 25.0914 28.138H22.6232C22.4965 28.138 22.375 28.0876 22.2854 27.998C22.1958 27.9083 22.1454 27.7868 22.1453 27.66V19.3207C22.1453 19.3207 22.2897 17.3184 20.5337 17.3184C20.5339 17.3184 18.7955 17.0901 18.8569 19.8126ZM82.4805 19.7892V27.6101C82.4804 27.7368 82.4301 27.8584 82.3405 27.948C82.2509 28.0376 82.1293 28.088 82.0026 28.0881L79.4356 28.1378C79.3089 28.1378 79.1873 28.0874 79.0977 27.9978C79.0081 27.9081 78.9578 27.7866 78.9577 27.6598V19.3207C78.9577 19.3207 79.102 17.3184 77.3462 17.3184C77.3462 17.3184 75.6692 17.2358 75.6692 20.3751V27.6335C75.6692 27.7602 75.6188 27.8818 75.5292 27.9714C75.4396 28.061 75.3181 28.1114 75.1913 28.1115H72.7229C72.5962 28.1114 72.4747 28.061 72.3851 27.9714C72.2955 27.8818 72.2451 27.7602 72.245 27.6335V14.9123C72.2451 14.7855 72.2955 14.664 72.3851 14.5743C72.4747 14.4847 72.5962 14.4343 72.7229 14.4343H75.007C75.1337 14.4343 75.2553 14.4846 75.3449 14.5743C75.4345 14.6639 75.4849 14.7855 75.4849 14.9123V16.7038C75.4849 16.7038 76.3013 14.1483 78.7245 14.1483C78.7245 14.1483 81.3201 13.7543 82.1944 16.4699C82.1946 16.4696 82.4805 17.0299 82.4805 19.7892ZM64.659 14.0956C61.5026 14.0956 58.9436 16.7565 58.9436 21.2353C58.9436 25.1785 60.919 28.3749 64.659 28.3749C68.1883 28.3749 70.3744 25.1785 70.3744 21.2353C70.3744 16.8355 67.8156 14.0956 64.659 14.0956ZM66.6512 21.3933C66.6512 23.0795 66.4405 23.9752 66.4405 23.9752C66.1407 25.7576 64.8472 25.7602 64.6565 25.7507C64.4506 25.7589 63.1461 25.7404 62.8762 23.9752C62.8762 23.9752 62.6655 23.0795 62.6655 21.3933V21.1124C62.6655 19.4263 62.8762 18.5305 62.8762 18.5305C63.1461 16.7653 64.4508 16.7468 64.6565 16.7548C64.8472 16.7453 66.1407 16.7476 66.4405 18.5305C66.4405 18.5305 66.6512 19.4263 66.6512 21.1124V21.3933ZM57.511 16.6861V14.8609C57.511 14.7341 57.4606 14.6126 57.371 14.5229C57.2814 14.4333 57.1599 14.3829 57.0331 14.3829H48.8746C48.7479 14.3829 48.6263 14.4332 48.5367 14.5229C48.4471 14.6125 48.3967 14.7341 48.3967 14.8609V16.672C48.3968 16.7987 48.4472 16.9203 48.5368 17.0099C48.6264 17.0996 48.7479 17.1499 48.8746 17.15H53.1302L48.0931 24.4593C48.0931 24.4593 47.8946 24.7557 47.9012 25.083V27.3063C47.9012 27.3063 47.8683 28.0687 48.7326 27.6263C48.7326 27.6263 50.2678 26.6985 52.842 26.6985C52.842 26.6985 55.3842 26.6669 57.0791 27.7062C57.0791 27.7062 57.7826 28.0261 57.7826 27.3226V25.3873C57.7826 25.3873 57.8465 24.8752 57.175 24.5554C57.175 24.5554 55.2242 23.4839 52.6661 23.6597L57.511 16.6861ZM13.5279 25.8367L12.7552 24.6602C12.5093 24.221 12.527 23.729 12.527 23.729V18.302C12.6324 13.6125 7.43492 14.0165 7.43492 14.0165C2.81457 14.0165 2.13209 17.6133 2.13209 17.6133C1.93951 18.3364 2.49956 18.3539 2.49956 18.3539L4.75727 18.583C4.75727 18.583 5.14223 18.6711 5.28235 18.2127C5.28235 18.2127 5.57966 16.6435 7.24234 16.6435C9.05146 16.6435 9.0327 18.1967 9.0327 18.1967V19.4969C5.42121 19.6176 3.74757 20.6205 3.74757 20.6205C1.51767 21.885 1.658 24.3967 1.658 24.3967C1.658 28.489 5.55606 28.3132 5.55606 28.3132C8.04934 28.3132 9.52428 26.4867 9.52428 26.4867C9.96318 27.2598 10.771 27.997 10.771 27.997C11.1752 28.4354 11.5964 28.0674 11.5964 28.0674L13.4225 26.5044C13.8263 26.2055 13.5279 25.8367 13.5279 25.8367ZM6.77288 25.7861C5.6001 25.7861 5.16415 24.6204 5.35884 23.4746C5.55374 22.3289 6.56597 21.4285 9.03291 21.4549V22.1515C9.12036 25.1945 7.74908 25.7861 6.77288 25.7861ZM46.3276 25.8367L45.5552 24.6602C45.3093 24.221 45.3268 23.729 45.3268 23.729V18.302C45.4321 13.6125 40.2346 14.0165 40.2346 14.0165C35.6143 14.0165 34.9318 17.6133 34.9318 17.6133C34.7392 18.3364 35.2993 18.3539 35.2993 18.3539L37.557 18.583C37.557 18.583 37.9419 18.6711 38.0821 18.2127C38.0821 18.2127 38.3794 16.6435 40.042 16.6435C41.8512 16.6435 41.8324 18.1967 41.8324 18.1967V19.4969C38.2211 19.6176 36.5473 20.6205 36.5473 20.6205C34.3174 21.885 34.4577 24.3967 34.4577 24.3967C34.4577 28.489 38.3558 28.3132 38.3558 28.3132C40.8491 28.3132 42.324 26.4867 42.324 26.4867C42.7631 27.2598 43.5705 27.997 43.5705 27.997C43.9747 28.4354 44.3961 28.0674 44.3961 28.0674L46.222 26.5044C46.626 26.2055 46.3276 25.8367 46.3276 25.8367ZM39.5726 25.7861C38.3998 25.7861 37.9639 24.6204 38.1586 23.4746C38.3535 22.3289 39.3657 21.4285 41.8324 21.4549V22.1515C41.9201 25.1945 40.549 25.7861 39.5726 25.7861Z" fill="#B7BAC7"/>
<path d="M52.5459 36.1067C52.5459 36.1067 52.3394 36.466 52.5931 36.5463C52.5931 36.5463 52.8796 36.6583 53.237 36.3265C53.237 36.3265 55.8432 34.0492 55.906 29.903C55.906 29.903 55.9252 29.3852 55.7174 29.2435C55.7174 29.2435 54.9009 28.521 51.965 28.7408C51.965 28.7408 49.4057 28.9137 48.0086 30.1544C48.0086 30.1544 47.883 30.2643 47.883 30.4055C47.883 30.4055 47.8528 30.7105 48.6209 30.5783C48.6209 30.5783 51.1799 30.2168 52.7029 30.4055C52.7029 30.4055 53.4882 30.4997 53.7079 30.7669C53.7079 30.7669 54.0691 31.0654 53.8805 32.0545C53.8805 32.0549 53.3622 34.5677 52.5459 36.1067Z" fill="#B7BAC7"/>
<path d="M52.0286 32.1298C52.0286 32.1298 52.4108 32.6251 51.794 33.0524C51.794 33.0524 45.2059 38.3236 34.1439 38.3236C34.1439 38.3236 22.7569 38.8855 13.2488 30.2441C13.2488 30.2441 12.9155 29.9514 13.1224 29.6793C13.1224 29.6793 13.3074 29.4289 13.7863 29.7012C13.7863 29.7012 22.7306 35.2762 34.4774 35.2762C34.4774 35.2762 42.6423 35.5923 51.0178 32.0093C51.0178 32.0093 51.6851 31.6634 52.0286 32.1298Z" fill="#B7BAC7"/>
</svg>
