<svg width="84" height="28" viewBox="0 0 84 28" fill="none" xmlns="http://www.w3.org/2000/svg">
<path d="M16.8021 4.52734L0 21.3295H8.40107L10.4986 19.232H25.2032L20.9973 15.0368H14.7046L21.0081 8.7333L16.8021 4.52734Z" fill="#B7BAC7"/>
<path d="M16.8006 4.52734L12.6055 8.72247L25.2017 21.3187H33.6028L16.8006 4.52734Z" fill="#B7BAC7"/>
<path d="M46.1996 0.332031L37.7985 8.7331L33.6033 4.53797H25.2022L33.6033 12.939L18.8555 27.676H27.2566L37.7985 17.1342L41.9936 21.3293H50.3947L41.9936 12.9282L54.6007 0.332031H46.1996Z" fill="#B7BAC7"/>
<path d="M58.8061 4.52734L42.0039 21.3295H50.405L58.8061 12.9284L67.2072 21.3295L83.9986 4.52734H75.5975L67.1964 12.9284L58.8061 4.52734Z" fill="#B7BAC7"/>
<path d="M52.5039 21.3279H65.1001L58.8074 15.0352L52.5039 21.3279Z" fill="#B7BAC7"/>
<path d="M60.9061 21.3279H65.1012L58.8086 15.0352L60.9061 21.3279Z" fill="#B7BAC7"/>
</svg>
