<svg width="84" height="42" viewBox="0 0 84 42" fill="none" xmlns="http://www.w3.org/2000/svg">
<path d="M10.3454 7.29297H11.0924C13.6856 7.34934 16.2367 8.3923 18.0689 10.2386C17.3924 10.9292 16.7018 11.5916 16.0393 12.2822C15.0105 11.352 13.7702 10.6332 12.4172 10.3796C10.4158 9.95673 8.25947 10.3373 6.58229 11.4789C4.75008 12.6769 3.50981 14.7064 3.24202 16.8769C2.94605 19.0192 3.55209 21.2742 4.94739 22.9373C6.28632 24.5581 8.32994 25.5729 10.444 25.6434C12.4172 25.7561 14.4749 25.1501 15.9125 23.7689C17.04 22.7964 17.5615 21.3165 17.7306 19.8789C15.391 19.8789 13.0514 19.893 10.7118 19.8789V16.9755H20.5635C21.0709 20.0903 20.338 23.5997 17.9702 25.8266C16.3917 27.4051 14.2071 28.3353 11.9803 28.5185C9.8239 28.7299 7.59706 28.3212 5.68028 27.2783C3.38296 26.0521 1.55075 23.9803 0.648732 21.542C-0.196905 19.3011 -0.210999 16.7641 0.578263 14.5091C1.29705 12.4514 2.67826 10.6332 4.4541 9.36479C6.15947 8.11042 8.23128 7.41981 10.3454 7.29297Z" fill="#B7BAC7"/>
<path d="M66.8633 8.02344H69.8794V28.1496C68.8787 28.1496 67.8639 28.1637 66.8633 28.1355C66.8774 21.4409 66.8633 14.7322 66.8633 8.02344Z" fill="#B7BAC7"/>
<path d="M27.2733 15C29.1337 14.6477 31.1491 15.0423 32.6854 16.1557C34.0807 17.1423 35.0532 18.6926 35.3491 20.3839C35.7297 22.343 35.2505 24.4853 33.982 26.0356C32.6149 27.7692 30.374 28.6994 28.1894 28.5584C26.188 28.4457 24.2431 27.445 23.0592 25.8101C21.7203 24.0061 21.3961 21.5255 22.129 19.4114C22.8619 17.1423 24.9337 15.4087 27.2733 15ZM27.6961 17.6779C26.935 17.8752 26.2303 18.3121 25.7229 18.9322C24.3558 20.5671 24.4404 23.2309 25.9484 24.7531C26.8082 25.6269 28.1048 26.0356 29.3028 25.796C30.4162 25.5987 31.3887 24.8517 31.9243 23.8651C32.8545 22.188 32.5867 19.8765 31.1632 18.5658C30.2471 17.7202 28.9082 17.3678 27.6961 17.6779Z" fill="#B7BAC7"/>
<path d="M42.2141 15.0011C44.3423 14.5923 46.6678 15.1843 48.2604 16.6782C50.8537 19.0037 51.1356 23.3588 48.9229 26.0366C47.5839 27.7279 45.4135 28.6581 43.2712 28.5594C41.2276 28.5031 39.2121 27.4883 38.0001 25.8111C36.6329 23.9648 36.337 21.4279 37.1121 19.2715C37.8873 17.0729 39.9168 15.3957 42.2141 15.0011ZM42.637 17.6789C41.8759 17.8762 41.1712 18.3131 40.6638 18.9192C39.3108 20.5259 39.3672 23.1474 40.8188 24.6836C41.6786 25.5997 43.0175 26.0507 44.2578 25.797C45.3571 25.5856 46.3437 24.8527 46.8792 23.8661C47.7954 22.1749 47.5276 19.8635 46.09 18.5527C45.1739 17.7071 43.835 17.3688 42.637 17.6789Z" fill="#B7BAC7"/>
<path d="M54.8816 15.8189C56.5024 14.8042 58.6588 14.5223 60.4064 15.3961C60.9561 15.6357 61.4071 16.0445 61.844 16.4532C61.8581 16.0726 61.844 15.678 61.8581 15.2834C62.8024 15.2975 63.7467 15.2834 64.7051 15.2975V27.7283C64.691 29.6028 64.2118 31.5901 62.8588 32.9572C61.3789 34.4652 59.1098 34.9303 57.0661 34.6203C54.8816 34.2961 52.9789 32.7035 52.1333 30.6881C52.9789 30.2793 53.8668 29.9552 54.7406 29.5746C55.2339 30.7303 56.2346 31.7169 57.489 31.9424C58.7433 32.1679 60.195 31.8579 61.0125 30.8149C61.8863 29.7438 61.8863 28.278 61.844 26.9673C61.1957 27.6015 60.4487 28.1652 59.5467 28.3766C57.5876 28.9263 55.4312 28.2498 53.9232 26.925C52.401 25.6001 51.499 23.5565 51.5836 21.527C51.6259 19.2297 52.9225 17.0169 54.8816 15.8189ZM57.799 17.623C56.9393 17.7639 56.1359 18.2431 55.5863 18.9055C54.2614 20.484 54.2614 23.0069 55.6004 24.5572C56.3614 25.4733 57.5876 25.9807 58.7715 25.8538C59.8849 25.7411 60.9138 25.0364 61.4635 24.0639C62.3937 22.4149 62.2386 20.174 60.9843 18.7364C60.2091 17.8485 58.9688 17.4116 57.799 17.623Z" fill="#B7BAC7"/>
<path d="M73.5002 16.5387C75.1915 14.9602 77.7989 14.4246 79.9694 15.2562C82.0271 16.0313 83.3378 17.9904 84.0002 20.0058C80.9418 21.2743 77.8975 22.5287 74.8391 23.7971C75.262 24.6005 75.9103 25.3334 76.7841 25.6293C78.0103 26.0662 79.4761 25.9112 80.5049 25.0938C80.9137 24.7837 81.2378 24.375 81.5479 23.9803C82.3231 24.5018 83.0982 25.0092 83.8734 25.5307C82.7741 27.1797 80.9277 28.3354 78.9405 28.5186C76.7418 28.7864 74.4022 27.9407 72.9787 26.2213C70.6391 23.5152 70.8646 18.977 73.5002 16.5387ZM75.0083 19.1461C74.5291 19.8367 74.3318 20.6824 74.3459 21.5139C76.3895 20.6683 78.4331 19.8226 80.4767 18.9629C80.1385 18.1736 79.321 17.6944 78.4895 17.5676C77.1506 17.328 75.7553 18.0468 75.0083 19.1461Z" fill="#B7BAC7"/>
</svg>
