<svg width="84" height="42" viewBox="0 0 84 42" fill="none" xmlns="http://www.w3.org/2000/svg">
<path d="M35.2065 16.0314C33.6898 16.0314 31.9648 16.7345 30.9108 18.1421L30.9115 18.1394L30.9108 18.1401L30.9115 16.2524H27.2939V29.4265H30.9108V21.9303C30.9108 20.5812 31.9568 19.1469 33.8937 19.1469C35.3905 19.1469 36.9395 20.1881 36.9395 21.9303V29.4265H40.5571V21.26C40.5571 18.2298 38.3892 16.0314 35.2065 16.0314ZM66.2684 16.253L62.998 25.2268L59.7276 16.253H55.5951L61.0156 29.4229H64.9797L70.4001 16.253H66.2684ZM16.494 20.2217C17.11 19.3945 18.0914 18.9088 19.2766 18.9088C20.5802 18.9088 21.5692 19.6533 22.0805 20.7522L15.7603 23.3744C15.5877 22.0287 15.932 20.9762 16.494 20.2217ZM23.444 25.3761C21.9215 26.5029 21.0516 26.7717 19.6631 26.7717C18.4136 26.7717 17.4353 26.3838 16.7457 25.7035L25.9942 21.8668C25.7922 20.4371 25.2496 19.1598 24.4146 18.1886C23.1994 16.7774 21.4008 16.0307 19.2109 16.0307C15.2332 16.0307 12.2338 18.9651 12.2338 22.841C12.2338 26.8174 15.2403 29.6505 19.6097 29.6505C22.0577 29.6505 24.5608 28.4902 25.7317 27.1347L23.444 25.3761ZM11.889 26.1048H3.66698V12.3125H0V29.4265H11.889V26.1048ZM76.896 19.1308C74.8757 19.1308 73.4087 20.6618 73.4087 22.8397C73.4087 24.9191 74.9626 26.5486 76.9445 26.5486C78.9654 26.5486 80.4316 24.9755 80.4316 22.8397C80.4316 20.7602 78.8784 19.1308 76.896 19.1308ZM76.896 29.6486C72.9397 29.6486 69.8396 26.7011 69.8396 22.8397C69.8396 19.0215 72.961 16.0307 76.9445 16.0307C80.9008 16.0307 84 18.978 84 22.8397C84 26.657 80.8793 29.6484 76.896 29.6484V29.6486ZM49.0438 19.1308C47.0235 19.1308 45.5574 20.6618 45.5574 22.8397C45.5574 24.9191 47.1106 26.5486 49.093 26.5486C51.1132 26.5486 52.5794 24.9755 52.5794 22.8397C52.5794 20.7602 51.0262 19.1308 49.0438 19.1308ZM49.0438 29.6486C45.0875 29.6486 41.9883 26.7011 41.9883 22.8397C41.9883 19.0215 45.1088 16.0307 49.093 16.0307C53.0486 16.0307 56.1485 18.978 56.1485 22.8397C56.1485 26.657 53.0272 29.6484 49.0438 29.6484" fill="#B7BAC7"/>
</svg>
