<svg width="98" height="42" viewBox="0 0 98 42" fill="none" xmlns="http://www.w3.org/2000/svg">
<path d="M97.2985 20.0156V18.3167H95.1888V15.6756L95.1178 15.6975L93.1363 16.3038L93.0972 16.3157V18.3168H89.9697V17.202C89.9697 16.6829 90.0857 16.2857 90.3145 16.0207C90.5416 15.759 90.8666 15.6259 91.281 15.6259C91.5789 15.6259 91.8874 15.6961 92.1978 15.8345L92.2756 15.8693V14.0801L92.239 14.0667C91.9494 13.9626 91.5555 13.9102 91.0673 13.9102C90.4519 13.9102 89.8929 14.0441 89.4053 14.3095C88.9174 14.5752 88.5336 14.9546 88.2647 15.437C87.9968 15.9188 87.8609 16.4753 87.8609 17.0911V18.3167H86.3919V20.0156H87.8609V27.1726H89.9697V20.0156H93.0972V24.5638C93.0972 26.4369 93.9808 27.3861 95.7233 27.3861C96.0096 27.3861 96.3109 27.3526 96.6187 27.2869C96.9319 27.2194 97.1452 27.1521 97.2708 27.0801L97.2986 27.0637V25.3491L97.2128 25.4058C97.0983 25.4821 96.9558 25.5444 96.7887 25.5907C96.6209 25.6379 96.4807 25.6616 96.3721 25.6616C95.964 25.6616 95.662 25.5516 95.4746 25.3345C95.2851 25.1155 95.1889 24.7324 95.1889 24.1966V20.0156H97.2985ZM81.6826 25.6619C80.9171 25.6619 80.3137 25.4081 79.8884 24.9081C79.4605 24.4056 79.2437 23.6893 79.2437 22.7791C79.2437 21.8401 79.4605 21.1051 79.8886 20.5938C80.3141 20.0858 80.9118 19.828 81.6654 19.828C82.3966 19.828 82.9787 20.0742 83.3956 20.5602C83.8146 21.0488 84.0273 21.7778 84.0273 22.7278C84.0273 23.6895 83.8273 24.4282 83.433 24.9223C83.0414 25.4127 82.4525 25.6619 81.6826 25.6619ZM81.7763 18.1034C80.316 18.1034 79.1561 18.5313 78.3291 19.3752C77.5027 20.2192 77.0837 21.3872 77.0837 22.847C77.0837 24.2336 77.4927 25.3489 78.2995 26.1614C79.1063 26.9742 80.2043 27.386 81.5628 27.386C82.9783 27.386 84.1151 26.9521 84.9417 26.0965C85.7682 25.2418 86.187 24.0848 86.187 22.6591C86.187 21.2509 85.794 20.1273 85.0187 19.3202C84.243 18.5127 83.1519 18.1034 81.7763 18.1034ZM73.6836 18.1034C72.6903 18.1034 71.8686 18.3575 71.241 18.8585C70.6094 19.3624 70.2891 20.0234 70.2891 20.8232C70.2891 21.2389 70.3583 21.6082 70.4943 21.9215C70.6312 22.2357 70.8431 22.5124 71.1245 22.7446C71.4038 22.975 71.835 23.2163 72.4063 23.4617C72.8866 23.6594 73.2448 23.8266 73.4724 23.9583C73.6948 24.0875 73.8526 24.2173 73.9417 24.3437C74.0284 24.4674 74.0723 24.6367 74.0723 24.8457C74.0723 25.4407 73.6267 25.7302 72.7099 25.7302C72.3699 25.7302 71.982 25.6591 71.5571 25.5192C71.1352 25.3813 70.737 25.1794 70.3765 24.9205L70.2889 24.8577V26.8881L70.3211 26.903C70.6194 27.0408 70.9957 27.1569 71.4391 27.2483C71.8816 27.3398 72.2837 27.3863 72.633 27.3863C73.7109 27.3863 74.5789 27.131 75.2123 26.6271C75.8497 26.1197 76.1728 25.4431 76.1728 24.6156C76.1728 24.0187 75.9989 23.5068 75.6561 23.0939C75.3157 22.6844 74.7248 22.3085 73.9007 21.9762C73.2442 21.7127 72.8236 21.4939 72.65 21.326C72.4828 21.1638 72.3978 20.9344 72.3978 20.6438C72.3978 20.3863 72.5027 20.18 72.7179 20.0129C72.9348 19.845 73.2367 19.7596 73.6153 19.7596C73.9667 19.7596 74.3262 19.8151 74.6837 19.9238C75.0409 20.0326 75.3547 20.1783 75.6167 20.3565L75.7028 20.4154V18.4894L75.6697 18.4752C75.4281 18.3716 75.1094 18.2829 74.7224 18.211C74.3371 18.1395 73.9876 18.1034 73.6836 18.1034ZM64.7916 25.6619C64.0263 25.6619 63.4227 25.4081 62.9975 24.9081C62.5695 24.4056 62.3531 23.6895 62.3531 22.7791C62.3531 21.8401 62.5698 21.1051 62.998 20.5938C63.4231 20.0858 64.0207 19.828 64.7746 19.828C65.5056 19.828 66.0877 20.0742 66.5047 20.5602C66.9238 21.0488 67.1364 21.7778 67.1364 22.7278C67.1364 23.6895 66.9363 24.4282 66.542 24.9223C66.1504 25.4127 65.5617 25.6619 64.7916 25.6619ZM64.8856 18.1034C63.4249 18.1034 62.265 18.5313 61.4384 19.3752C60.612 20.2192 60.1927 21.3872 60.1927 22.847C60.1927 24.2342 60.602 25.3489 61.4088 26.1614C62.2156 26.9742 63.3135 27.386 64.6719 27.386C66.0873 27.386 67.2243 26.9521 68.051 26.0965C68.8773 25.2418 69.2962 24.0848 69.2962 22.6591C69.2962 21.2509 68.9032 20.1273 68.1277 19.3202C67.3518 18.5127 66.2609 18.1034 64.8856 18.1034ZM56.9916 19.8504V18.3167H54.9085V27.1724H56.9916V22.6424C56.9916 21.8721 57.1662 21.2393 57.5109 20.7613C57.8511 20.289 58.3045 20.0497 58.8581 20.0497C59.0457 20.0497 59.2564 20.0806 59.4845 20.1419C59.7102 20.2027 59.8738 20.2688 59.9702 20.3383L60.0578 20.4017V18.3016L60.024 18.2871C59.83 18.2047 59.5556 18.1631 59.2083 18.1631C58.6848 18.1631 58.2164 18.3313 57.8151 18.6625C57.4629 18.9536 57.2084 19.3527 57.0137 19.8504H56.9916ZM51.178 18.1034C50.2223 18.1034 49.3699 18.3083 48.6449 18.7123C47.9183 19.1172 47.3564 19.6953 46.9741 20.4303C46.5935 21.1636 46.4003 22.0201 46.4003 22.9753C46.4003 23.8121 46.5876 24.5799 46.958 25.2567C47.3285 25.9345 47.8529 26.4648 48.5168 26.8327C49.1797 27.2 49.9458 27.3862 50.7941 27.3862C51.7841 27.3862 52.6293 27.1883 53.307 26.798L53.3344 26.7823V24.8738L53.2468 24.9377C52.9398 25.1614 52.5968 25.3398 52.2277 25.4684C51.8595 25.5969 51.5239 25.6619 51.2295 25.6619C50.4121 25.6619 49.7559 25.4061 49.2796 24.9018C48.8023 24.397 48.5603 23.688 48.5603 22.7958C48.5603 21.8981 48.8127 21.1709 49.3101 20.6343C49.806 20.0993 50.4634 19.828 51.2639 19.828C51.9486 19.828 52.6158 20.0598 53.247 20.5177L53.3344 20.5811V18.5703L53.3062 18.5544C53.0686 18.4214 52.7446 18.3116 52.3424 18.2283C51.9419 18.1453 51.5502 18.1034 51.178 18.1034ZM44.9656 18.3168H42.8825V27.1724H44.9656V18.3168ZM43.9454 14.5443C43.6025 14.5443 43.3035 14.661 43.0578 14.8923C42.8111 15.1242 42.686 15.4162 42.686 15.7609C42.686 16.1001 42.8096 16.3868 43.054 16.6125C43.2967 16.8377 43.5967 16.9518 43.9454 16.9518C44.2941 16.9518 44.5952 16.8377 44.8408 16.6129C45.0881 16.3868 45.2135 16.1002 45.2135 15.7609C45.2135 15.4283 45.0915 15.1393 44.851 14.9016C44.6108 14.6645 44.306 14.5443 43.9454 14.5443ZM38.7479 17.6635V27.1724H40.8738V14.8154H37.9314L34.1915 23.9938L30.5621 14.8154H27.5V27.1723H29.4978V17.6625H29.5664L33.3989 27.1724H34.9066L38.6793 17.6635H38.7479Z" fill="#B7BAC7"/>
<path d="M10.4988 20.4871H0.699219V10.6875H10.4988V20.4871Z" fill="#B7BAC7"/>
<path d="M21.3189 20.4871H11.5195V10.6875H21.3189V20.4871Z" fill="#B7BAC7"/>
<path d="M10.4985 31.3112H0.699219V21.5117H10.4985V31.3112Z" fill="#B7BAC7"/>
<path d="M21.3189 31.3112H11.5195V21.5117H21.3189V31.3112Z" fill="#B7BAC7"/>
</svg>
