<svg width="84" height="42" viewBox="0 0 84 42" fill="none" xmlns="http://www.w3.org/2000/svg">
<path fill-rule="evenodd" clip-rule="evenodd" d="M26.875 27.1167L27.9233 24.6807C29.0556 25.5274 30.5643 25.9676 32.0528 25.9676C33.1515 25.9676 33.847 25.5442 33.847 24.9025C33.8302 23.1082 27.2648 24.5127 27.2144 20.0137C27.1976 17.7289 29.227 15.9682 32.1032 15.9682C33.8134 15.9682 35.5203 16.3916 36.74 17.3559L35.7588 19.8423C34.6433 19.13 33.2556 18.6226 31.9352 18.6226C31.038 18.6226 30.4467 19.046 30.4467 19.587C30.4635 21.3476 37.0793 20.3833 37.1465 24.6807C37.1465 27.0159 35.1675 28.6589 32.3249 28.6589C30.2417 28.6556 28.3299 28.165 26.875 27.1167ZM67.1312 23.8004C66.607 24.7143 65.6259 25.3393 64.4902 25.3393C62.8136 25.3393 61.4628 23.9852 61.4628 22.3119C61.4628 20.6386 62.8169 19.2846 64.4902 19.2846C65.6225 19.2846 66.607 19.9095 67.1312 20.8234L70.0241 19.2174C68.9422 17.2887 66.859 15.9682 64.4902 15.9682C60.9857 15.9682 58.1432 18.8108 58.1432 22.3153C58.1432 25.8197 60.9857 28.6623 64.4902 28.6623C66.8758 28.6623 68.9422 27.3586 70.0241 25.4132L67.1312 23.8004ZM38.6014 10.7031H42.2235V28.4204H38.6014V10.7031ZM71.4454 10.7031V28.4204H75.0675V23.1049L79.3649 28.4204H84.0017L78.535 22.107L83.5952 16.2169H79.16L75.0641 21.1057V10.7031H71.4454Z" fill="black"/>
<path d="M52.9818 23.834C52.4576 24.6975 51.3757 25.3392 50.156 25.3392C48.4794 25.3392 47.1287 23.9852 47.1287 22.3119C47.1287 20.6386 48.4828 19.2845 50.156 19.2845C51.3757 19.2845 52.4576 19.9599 52.9818 20.8402V23.834ZM52.9818 16.2202V17.6583C52.3904 16.6604 50.9188 15.9648 49.3765 15.9648C46.1946 15.9648 43.6914 18.7738 43.6914 22.2951C43.6914 25.8163 46.1946 28.6589 49.3765 28.6589C50.9154 28.6589 52.3871 27.9667 52.9818 26.9655V28.4035H56.6039V16.2202H52.9818Z" fill="black"/>
<path fill-rule="evenodd" clip-rule="evenodd" d="M4.48443 23.8164C4.48443 25.0529 3.48651 26.0508 2.25003 26.0508C1.01355 26.0508 0.015625 25.0496 0.015625 23.8164C0.015625 22.5833 1.01355 21.582 2.25003 21.582H4.48443V23.8164ZM5.59995 23.8164C5.59995 22.58 6.59787 21.582 7.83435 21.582C9.07083 21.582 10.0687 22.58 10.0687 23.8164V29.4008C10.0687 30.6373 9.07083 31.6352 7.83435 31.6352C6.59787 31.6352 5.59995 30.6373 5.59995 29.4008V23.8164Z" fill="#E01E5A"/>
<path fill-rule="evenodd" clip-rule="evenodd" d="M7.83552 14.8477C6.59904 14.8477 5.60112 13.8498 5.60112 12.6133C5.60112 11.3768 6.59904 10.3789 7.83552 10.3789C9.072 10.3789 10.0699 11.3768 10.0699 12.6133V14.8477H7.83552ZM7.83552 15.98C9.072 15.98 10.0699 16.978 10.0699 18.2144C10.0699 19.4509 9.072 20.4489 7.83552 20.4489H2.2344C0.99792 20.4489 0 19.4476 0 18.2144C0 16.9813 0.99792 15.98 2.2344 15.98H7.83552Z" fill="#36C5F0"/>
<path fill-rule="evenodd" clip-rule="evenodd" d="M16.7874 18.2144C16.7874 16.978 17.7853 15.98 19.0218 15.98C20.2583 15.98 21.2562 16.978 21.2562 18.2144C21.2562 19.4509 20.2583 20.4489 19.0218 20.4489H16.7874V18.2144ZM15.6719 18.2144C15.6719 19.4509 14.674 20.4489 13.4375 20.4489C12.201 20.4489 11.2031 19.4509 11.2031 18.2144V12.6133C11.2031 11.3768 12.201 10.3789 13.4375 10.3789C14.674 10.3789 15.6719 11.3768 15.6719 12.6133V18.2144Z" fill="#2EB67D"/>
<path fill-rule="evenodd" clip-rule="evenodd" d="M13.4375 27.1664C14.674 27.1664 15.6719 28.1643 15.6719 29.4008C15.6719 30.6373 14.674 31.6352 13.4375 31.6352C12.201 31.6352 11.2031 30.6373 11.2031 29.4008V27.1664H13.4375ZM13.4375 26.0508C12.201 26.0508 11.2031 25.0529 11.2031 23.8164C11.2031 22.58 12.201 21.582 13.4375 21.582H19.0386C20.2751 21.582 21.273 22.58 21.273 23.8164C21.273 25.0529 20.2751 26.0508 19.0386 26.0508H13.4375Z" fill="#ECB22E"/>
</svg>
