<svg width="84" height="42" viewBox="0 0 84 42" fill="none" xmlns="http://www.w3.org/2000/svg">
<path fill-rule="evenodd" clip-rule="evenodd" d="M23.8618 12.1834C25.0167 12.4945 25.9245 13.4021 26.2314 14.5529C26.7897 16.6411 26.7897 21.001 26.7897 21.001C26.7897 21.001 26.7897 25.3608 26.2314 27.4491C25.9202 28.604 25.0126 29.5118 23.8618 29.8186C21.7736 30.377 13.3949 30.377 13.3949 30.377C13.3949 30.377 5.02044 30.377 2.92788 29.8186C1.77296 29.5075 0.865172 28.5998 0.558353 27.4491C0 25.3608 0 21.0009 0 21.0009C0 21.0009 0 16.6411 0.558353 14.5529C0.869467 13.398 1.77726 12.4902 2.92788 12.1834C5.02044 11.625 13.3949 11.625 13.3949 11.625C13.3949 11.625 21.7736 11.625 23.8618 12.1834ZM17.6778 21.0014L10.7183 25.0204V16.9826L17.6778 21.0014Z" fill="#B7BAC7"/>
<path fill-rule="evenodd" clip-rule="evenodd" d="M38.8855 28.6876C38.357 28.3297 37.9777 27.7757 37.7561 27.0214C37.5344 26.267 37.4194 25.2655 37.4194 24.0125V22.3078C37.4194 21.0421 37.5472 20.0278 37.8029 19.2605C38.0587 18.4935 38.4593 17.9352 39.0005 17.5857C39.5418 17.2362 40.2535 17.0573 41.1357 17.0573C42.0051 17.0573 42.6998 17.2362 43.2239 17.5943C43.7481 17.9522 44.1317 18.5105 44.3746 19.2691C44.6176 20.0278 44.737 21.0421 44.737 22.3035V24.0083C44.737 25.2612 44.6176 26.267 44.3831 27.0256C44.1488 27.7841 43.7653 28.3425 43.2325 28.6919C42.704 29.0414 41.9838 29.2205 41.076 29.2205C40.1469 29.2246 39.4139 29.0457 38.8855 28.6876ZM41.8559 26.8466C42.0008 26.463 42.0776 25.8365 42.0776 24.9715V21.3106C42.0776 20.4666 42.0051 19.853 41.8559 19.461C41.7111 19.0731 41.4511 18.8771 41.0803 18.8771C40.7223 18.8771 40.4708 19.0731 40.3217 19.461C40.1768 19.8487 40.1001 20.4666 40.1001 21.3106V24.9715C40.1001 25.8408 40.1683 26.4673 40.3089 26.8466C40.4495 27.2302 40.7053 27.4219 41.0761 27.4219C41.4511 27.4219 41.7068 27.2302 41.8559 26.8466ZM79.5728 24.0423V24.6348C79.5728 25.3891 79.5942 25.9516 79.6411 26.3309C79.6836 26.706 79.7774 26.983 79.918 27.1535C80.0587 27.3239 80.276 27.4134 80.57 27.4134C80.9665 27.4134 81.2392 27.26 81.3841 26.9531C81.529 26.6463 81.6098 26.1349 81.6227 25.4189L83.9027 25.5511C83.9156 25.6533 83.9198 25.7939 83.9198 25.9729C83.9198 27.0597 83.6215 27.8694 83.0291 28.4064C82.4367 28.9434 81.5972 29.2118 80.5104 29.2118C79.2063 29.2118 78.2943 28.8027 77.7701 27.9845C77.2459 27.1662 76.986 25.9047 76.986 24.1915V22.1416C76.986 20.3772 77.2587 19.0943 77.7998 18.2805C78.3411 17.4707 79.2702 17.0658 80.5872 17.0658C81.4949 17.0658 82.1896 17.2321 82.6753 17.5644C83.1612 17.8968 83.5022 18.4124 83.7025 19.1157C83.8985 19.8189 84.0009 20.7906 84.0009 22.0265V24.0381H79.5728V24.0423ZM79.9095 19.0986C79.7773 19.2649 79.6879 19.5376 79.641 19.9127C79.5941 20.2877 79.5728 20.8631 79.5728 21.6259V22.4698H81.5076V21.6259C81.5076 20.8715 81.4821 20.3005 81.4309 19.9127C81.3798 19.5248 81.2861 19.2479 81.1539 19.0901C81.0218 18.9324 80.813 18.8515 80.5317 18.8515C80.2504 18.8472 80.0416 18.9324 79.9095 19.0986ZM32.4501 23.8207L29.4414 12.9574H32.0665L33.1193 17.8798C33.3878 19.0944 33.5838 20.1258 33.7116 20.9824H33.7883C33.8778 20.3686 34.0739 19.3416 34.3808 17.8968L35.4717 12.9531H38.097L35.0541 23.8207V29.0329H32.4501V23.8207ZM53.2733 17.2875V29.0286H51.2063L50.9761 27.5924H50.9207C50.3582 28.6792 49.5144 29.2204 48.3935 29.2204C47.6136 29.2204 47.0382 28.9647 46.6675 28.4533C46.2967 27.9418 46.1135 27.145 46.1135 26.0582V17.2875H48.7558V25.909C48.7558 26.4332 48.8112 26.8083 48.9263 27.0299C49.0414 27.2514 49.2331 27.3665 49.5016 27.3665C49.7318 27.3665 49.9533 27.2983 50.1621 27.1577C50.3709 27.0171 50.5286 26.838 50.631 26.6207V17.2873L53.2733 17.2875ZM66.8343 17.2875V29.0286H64.7673L64.5371 27.5924H64.4817C63.9192 28.6792 63.0754 29.2204 61.9545 29.2204C61.1747 29.2204 60.5993 28.9647 60.2286 28.4533C59.8578 27.9418 59.6745 27.145 59.6745 26.0582V17.2875H62.3168V25.909C62.3168 26.4332 62.3722 26.8083 62.4873 27.0299C62.6023 27.2514 62.7941 27.3665 63.0626 27.3665C63.2928 27.3665 63.5144 27.2983 63.7232 27.1577C63.932 27.0171 64.0897 26.838 64.192 26.6207V17.2873L66.8343 17.2875Z" fill="#B7BAC7"/>
<path fill-rule="evenodd" clip-rule="evenodd" d="M60.4585 15.0824H57.8333V29.0268H55.2463V15.0824H52.6211V12.9558H60.4542V15.0824H60.4585ZM75.5836 19.165C75.4217 18.4236 75.166 17.8866 74.8079 17.5542C74.45 17.2217 73.9599 17.0555 73.3333 17.0555C72.8477 17.0555 72.3958 17.1919 71.9739 17.469C71.552 17.7416 71.2281 18.104 70.9979 18.5514H70.9767V12.3633H68.4281V29.0311H70.6101L70.8786 27.9188H70.9341C71.1386 28.3152 71.4454 28.6263 71.8545 28.8564C72.2636 29.0865 72.7155 29.2016 73.2141 29.2016C74.1091 29.2016 74.7653 28.7882 75.1873 27.9656C75.6091 27.1432 75.818 25.8561 75.818 24.1045V22.2463C75.8223 20.9337 75.7413 19.9067 75.5836 19.1652V19.165ZM73.1587 23.9553C73.1587 24.812 73.1245 25.481 73.0522 25.9669C72.9839 26.4528 72.8646 26.798 72.6984 27.0026C72.5321 27.2071 72.3106 27.3094 72.0293 27.3094C71.8119 27.3094 71.6117 27.2583 71.4241 27.156C71.2409 27.0537 71.0875 26.9003 70.9724 26.6956V20.026C71.0619 19.7063 71.2153 19.4464 71.4327 19.2419C71.65 19.0373 71.8844 18.935 72.1401 18.935C72.4086 18.935 72.6174 19.0415 72.7623 19.2503C72.9072 19.4592 73.0095 19.8171 73.0691 20.3115C73.1246 20.8101 73.1544 21.5176 73.1544 22.4381V23.9553H73.1587Z" fill="#B7BAC7"/>
</svg>
