<svg width="18" height="18" viewBox="0 0 18 18" fill="none" xmlns="http://www.w3.org/2000/svg">
<path d="M16.2689 9.2159C16.2404 9.2849 16.1993 9.34707 16.1475 9.39882L10.8975 14.6488C10.788 14.7583 10.644 14.8138 10.5 14.8138C10.356 14.8138 10.212 14.7591 10.1025 14.6488C9.88273 14.4291 9.88273 14.0728 10.1025 13.853L14.3925 9.56307H2.25C1.9395 9.56307 1.6875 9.31107 1.6875 9.00057C1.6875 8.69007 1.9395 8.43807 2.25 8.43807H14.3917L10.1017 4.14809C9.882 3.92834 9.882 3.57206 10.1017 3.35231C10.3215 3.13256 10.6778 3.13256 10.8975 3.35231L16.1475 8.60231C16.1993 8.65406 16.2404 8.71623 16.2689 8.78523C16.3259 8.92323 16.3259 9.0779 16.2689 9.2159Z" fill="white"/>
</svg>
