<svg width="34" height="35" viewBox="0 0 34 35" fill="none" xmlns="http://www.w3.org/2000/svg">
<path fill-rule="evenodd" clip-rule="evenodd" d="M4 0.5C1.79086 0.5 0 2.29086 0 4.5V30.5C0 32.7091 1.79086 34.5 4 34.5H30C32.2091 34.5 34 32.7091 34 30.5V4.5C34 2.29086 32.2091 0.5 30 0.5H4ZM11.9375 23.8047C12.8646 23.8047 13.6458 23.6094 14.2812 23.2188C14.651 22.9948 15.0677 22.6094 15.5312 22.0625L15.7734 23.5H17.3672V17.3203H12.5703V19.2422H15.2344C15.1146 19.9974 14.7969 20.6094 14.2812 21.0781C13.7656 21.5417 13.1042 21.7734 12.2969 21.7734C11.474 21.7734 10.7396 21.4792 10.0938 20.8906C9.44792 20.3021 9.125 19.2995 9.125 17.8828C9.125 16.4766 9.42188 15.4245 10.0156 14.7266C10.6146 14.0234 11.3776 13.6719 12.3047 13.6719C12.7891 13.6719 13.2292 13.7578 13.625 13.9297C14.3333 14.2422 14.7786 14.7917 14.9609 15.5781H17.3281C17.1979 14.4688 16.6875 13.5443 15.7969 12.8047C14.9115 12.0599 13.737 11.6875 12.2734 11.6875C10.5859 11.6875 9.22917 12.25 8.20312 13.375C7.17708 14.5 6.66406 15.9948 6.66406 17.8594C6.66406 19.7031 7.17188 21.1562 8.1875 22.2188C9.16146 23.276 10.4115 23.8047 11.9375 23.8047ZM24.5 23.8203C25.8385 23.8203 26.9375 23.4271 27.7969 22.6406C28.651 21.8542 29.1823 20.8333 29.3906 19.5781H27.0078C26.8464 20.1719 26.6432 20.6172 26.3984 20.9141C25.9557 21.4661 25.3125 21.7422 24.4688 21.7422C23.6458 21.7422 22.9661 21.4219 22.4297 20.7812C21.8984 20.1354 21.6328 19.1667 21.6328 17.875C21.6328 16.5833 21.8854 15.5859 22.3906 14.8828C22.8958 14.1745 23.5859 13.8203 24.4609 13.8203C25.3203 13.8203 25.9688 14.0703 26.4062 14.5703C26.651 14.8516 26.8516 15.2682 27.0078 15.8203H29.4141C29.3776 15.1016 29.112 14.3854 28.6172 13.6719C27.7214 12.401 26.3047 11.7656 24.3672 11.7656C22.9193 11.7656 21.7266 12.2396 20.7891 13.1875C19.7109 14.276 19.1719 15.8255 19.1719 17.8359C19.1719 19.6953 19.6458 21.1589 20.5938 22.2266C21.5417 23.2891 22.8438 23.8203 24.5 23.8203Z" fill="#664DFF"/>
</svg>
