<svg width="28" height="23" viewBox="0 0 28 23" fill="none" xmlns="http://www.w3.org/2000/svg">
<path d="M22.746 11.7068C25.88 11.7068 28 13.8908 28 17.1268C28 20.0388 25.568 22.4648 22.274 22.4648C18.666 22.4648 16 19.5528 16 15.1048C16 4.99484 23.372 0.950844 28 0.464844V4.91284C24.862 5.47884 21.334 8.63284 21.176 12.1128C21.334 12.0328 21.96 11.7068 22.746 11.7068Z" fill="#FFC107"/>
<path d="M6.746 11.7068C9.882 11.7068 12 13.8908 12 17.1268C12 20.0388 9.568 22.4648 6.274 22.4648C2.666 22.4648 0 19.5528 0 15.1048C0 4.99484 7.372 0.950844 12 0.464844V4.91284C8.862 5.47884 5.334 8.63284 5.176 12.1128C5.334 12.0328 5.96 11.7068 6.746 11.7068Z" fill="#FFC107"/>
</svg>
