<svg width="1052" height="817" viewBox="0 0 1052 817" fill="none" xmlns="http://www.w3.org/2000/svg">
<mask id="mask0_245_14252" style="mask-type:alpha" maskUnits="userSpaceOnUse" x="-330" y="-207" width="1382" height="1024">
<rect x="-330" y="-207" width="1381.39" height="1024" fill="url(#paint0_radial_245_14252)"/>
</mask>
<g mask="url(#mask0_245_14252)">
<rect x="0.633663" y="-0.633663" width="150.812" height="150.812" transform="matrix(1 0 0 -1 -93.0078 756.733)" stroke="#884AFF" stroke-width="1.26733"/>
<rect x="0.633663" y="-0.633663" width="150.812" height="150.812" transform="matrix(1 0 0 -1 57.8047 756.733)" stroke="#884AFF" stroke-width="1.26733"/>
<rect x="0.633663" y="-0.633663" width="150.812" height="150.812" transform="matrix(1 0 0 -1 208.617 756.733)" stroke="#884AFF" stroke-width="1.26733"/>
<rect x="0.633663" y="-0.633663" width="150.812" height="150.812" transform="matrix(1 0 0 -1 359.426 756.733)" stroke="#884AFF" stroke-width="1.26733"/>
<rect x="0.633663" y="-0.633663" width="150.812" height="150.812" transform="matrix(1 0 0 -1 510.238 756.733)" stroke="#884AFF" stroke-width="1.26733"/>
<rect x="0.633663" y="-0.633663" width="150.812" height="150.812" transform="matrix(1 0 0 -1 661.051 756.733)" stroke="#884AFF" stroke-width="1.26733"/>
<rect x="0.633663" y="-0.633663" width="150.812" height="150.812" transform="matrix(1 0 0 -1 811.863 756.733)" stroke="#884AFF" stroke-width="1.26733"/>
<rect x="0.633663" y="-0.633663" width="150.812" height="150.812" transform="matrix(1 0 0 -1 -93.0078 605.92)" fill="#884AFF" fill-opacity="0.2" stroke="#884AFF" stroke-width="1.26733"/>
<rect x="0.633663" y="-0.633663" width="150.812" height="150.812" transform="matrix(1 0 0 -1 57.8047 605.92)" stroke="#884AFF" stroke-width="1.26733"/>
<rect x="0.633663" y="-0.633663" width="150.812" height="150.812" transform="matrix(1 0 0 -1 208.617 605.92)" stroke="#884AFF" stroke-width="1.26733"/>
<rect x="0.633663" y="-0.633663" width="150.812" height="150.812" transform="matrix(1 0 0 -1 359.426 605.92)" stroke="#884AFF" stroke-width="1.26733"/>
<rect x="0.633663" y="-0.633663" width="150.812" height="150.812" transform="matrix(1 0 0 -1 510.238 605.92)" fill="#884AFF" fill-opacity="0.2" stroke="#884AFF" stroke-width="1.26733"/>
<rect x="0.633663" y="-0.633663" width="150.812" height="150.812" transform="matrix(1 0 0 -1 661.051 605.92)" stroke="#884AFF" stroke-width="1.26733"/>
<rect x="0.633663" y="-0.633663" width="150.812" height="150.812" transform="matrix(1 0 0 -1 811.863 605.92)" stroke="#884AFF" stroke-width="1.26733"/>
<rect x="0.633663" y="-0.633663" width="150.812" height="150.812" transform="matrix(1 0 0 -1 -93.0078 455.108)" stroke="#884AFF" stroke-width="1.26733"/>
<rect x="0.633663" y="-0.633663" width="150.812" height="150.812" transform="matrix(1 0 0 -1 57.8047 455.108)" stroke="#884AFF" stroke-width="1.26733"/>
<rect x="0.633663" y="-0.633663" width="150.812" height="150.812" transform="matrix(1 0 0 -1 208.617 455.108)" fill="#884AFF" fill-opacity="0.2" stroke="#884AFF" stroke-width="1.26733"/>
<rect x="0.633663" y="-0.633663" width="150.812" height="150.812" transform="matrix(1 0 0 -1 359.426 455.108)" stroke="#884AFF" stroke-width="1.26733"/>
<rect x="0.633663" y="-0.633663" width="150.812" height="150.812" transform="matrix(1 0 0 -1 510.238 455.108)" stroke="#884AFF" stroke-width="1.26733"/>
<rect x="0.633663" y="-0.633663" width="150.812" height="150.812" transform="matrix(1 0 0 -1 661.051 455.108)" stroke="#884AFF" stroke-width="1.26733"/>
<rect x="0.633663" y="-0.633663" width="150.812" height="150.812" transform="matrix(1 0 0 -1 811.863 455.108)" stroke="#884AFF" stroke-width="1.26733"/>
<rect x="0.633663" y="-0.633663" width="150.812" height="150.812" transform="matrix(1 0 0 -1 -93.0078 304.295)" stroke="#884AFF" stroke-width="1.26733"/>
<rect x="0.633663" y="-0.633663" width="150.812" height="150.812" transform="matrix(1 0 0 -1 57.8047 304.295)" fill="#884AFF" fill-opacity="0.2" stroke="#884AFF" stroke-width="1.26733"/>
<rect x="0.633663" y="-0.633663" width="150.812" height="150.812" transform="matrix(1 0 0 -1 208.617 304.295)" stroke="#884AFF" stroke-width="1.26733"/>
<rect x="0.633663" y="-0.633663" width="150.812" height="150.812" transform="matrix(1 0 0 -1 359.426 304.295)" fill="#884AFF" fill-opacity="0.2" stroke="#884AFF" stroke-width="1.26733"/>
<rect x="0.633663" y="-0.633663" width="150.812" height="150.812" transform="matrix(1 0 0 -1 510.238 304.295)" stroke="#884AFF" stroke-width="1.26733"/>
<rect x="0.633663" y="-0.633663" width="150.812" height="150.812" transform="matrix(1 0 0 -1 661.051 304.295)" fill="#884AFF" fill-opacity="0.2" stroke="#884AFF" stroke-width="1.26733"/>
<rect x="0.633663" y="-0.633663" width="150.812" height="150.812" transform="matrix(1 0 0 -1 811.863 304.295)" stroke="#884AFF" stroke-width="1.26733"/>
<rect x="0.633663" y="-0.633663" width="150.812" height="150.812" transform="matrix(1 0 0 -1 -93.0078 153.487)" stroke="#884AFF" stroke-width="1.26733"/>
<rect x="0.633663" y="-0.633663" width="150.812" height="150.812" transform="matrix(1 0 0 -1 57.8047 153.487)" fill="#884AFF" fill-opacity="0.2" stroke="#884AFF" stroke-width="1.26733"/>
<rect x="0.633663" y="-0.633663" width="150.812" height="150.812" transform="matrix(1 0 0 -1 208.617 153.487)" stroke="#884AFF" stroke-width="1.26733"/>
<rect x="0.633663" y="-0.633663" width="150.812" height="150.812" transform="matrix(1 0 0 -1 359.426 153.487)" stroke="#884AFF" stroke-width="1.26733"/>
<rect x="0.633663" y="-0.633663" width="150.812" height="150.812" transform="matrix(1 0 0 -1 510.238 153.487)" stroke="#884AFF" stroke-width="1.26733"/>
<rect x="0.633663" y="-0.633663" width="150.812" height="150.812" transform="matrix(1 0 0 -1 661.051 153.487)" stroke="#884AFF" stroke-width="1.26733"/>
<rect x="0.633663" y="-0.633663" width="150.812" height="150.812" transform="matrix(1 0 0 -1 811.863 153.487)" stroke="#884AFF" stroke-width="1.26733"/>
<rect x="0.633663" y="-0.633663" width="150.812" height="150.812" transform="matrix(1 0 0 -1 -93.0078 2.67408)" stroke="#884AFF" stroke-width="1.26733"/>
<rect x="0.633663" y="-0.633663" width="150.812" height="150.812" transform="matrix(1 0 0 -1 57.8047 2.67408)" stroke="#884AFF" stroke-width="1.26733"/>
<rect x="0.633663" y="-0.633663" width="150.812" height="150.812" transform="matrix(1 0 0 -1 208.617 2.67408)" stroke="#884AFF" stroke-width="1.26733"/>
<rect x="0.633663" y="-0.633663" width="150.812" height="150.812" transform="matrix(1 0 0 -1 359.426 2.67408)" stroke="#884AFF" stroke-width="1.26733"/>
<rect x="0.633663" y="-0.633663" width="150.812" height="150.812" transform="matrix(1 0 0 -1 510.238 2.67408)" stroke="#884AFF" stroke-width="1.26733"/>
<rect x="0.633663" y="-0.633663" width="150.812" height="150.812" transform="matrix(1 0 0 -1 661.051 2.67408)" stroke="#884AFF" stroke-width="1.26733"/>
<rect x="0.633663" y="-0.633663" width="150.812" height="150.812" transform="matrix(1 0 0 -1 811.863 2.67408)" stroke="#884AFF" stroke-width="1.26733"/>
</g>
<defs>
<radialGradient id="paint0_radial_245_14252" cx="0" cy="0" r="1" gradientUnits="userSpaceOnUse" gradientTransform="translate(360.693 305) rotate(90) scale(449.267 606.066)">
<stop offset="0.405" stop-color="#664DFF"/>
<stop offset="1" stop-color="#664DFF" stop-opacity="0"/>
</radialGradient>
</defs>
</svg>
