<svg width="53" height="54" viewBox="0 0 53 54" fill="none" xmlns="http://www.w3.org/2000/svg">
<circle cx="26.5" cy="27" r="26.5" fill="#554A97" fill-opacity="0.1"/>
<path d="M36.6154 19.4102L35.4232 20.6025L33.2427 18.422V25.3125H31.5563V18.422L29.3759 20.6025L28.1836 19.4102L32.3995 15.1943L36.6154 19.4102Z" fill="#554A97"/>
<path d="M26.4994 17.3808H21.9403V31.5581H31.0585V27.8422V27.3422H31.5585H33.2448H33.7448V27.8422V35.4308V35.4313C33.7442 36.0109 33.5138 36.5665 33.104 36.9763C32.6941 37.3861 32.1385 37.6166 31.559 37.6172H31.5585L21.4403 37.6172L21.4398 37.6172C20.8602 37.6166 20.3046 37.3861 19.8948 36.9763C19.485 36.5665 19.2545 36.0109 19.2539 35.4313V35.4308L19.2539 16.8808L19.2539 16.8803C19.2545 16.3008 19.485 15.7451 19.8948 15.3353C20.3046 14.9255 20.8602 14.695 21.4398 14.6945H21.4403H26.4994H26.9994V15.1945V16.8808V17.3808H26.4994ZM21.9403 34.9308H31.0585V34.2445H21.9403V34.9308Z" fill="#554A97" stroke="#6157A0"/>
</svg>
