<svg width="28" height="23" viewBox="0 0 28 23" fill="none" xmlns="http://www.w3.org/2000/svg">
<path d="M5.254 11.2228C2.12 11.2228 0 9.03884 0 5.80284C0 2.89084 2.432 0.464844 5.726 0.464844C9.334 0.464844 12 3.37684 12 7.82484C12 17.9348 4.628 21.9788 0 22.4648V18.0168C3.138 17.4508 6.666 14.2968 6.824 10.8168C6.666 10.8968 6.04 11.2228 5.254 11.2228Z" fill="#FFC107"/>
<path d="M21.254 11.2228C18.118 11.2228 16 9.03884 16 5.80284C16 2.89084 18.432 0.464844 21.726 0.464844C25.334 0.464844 28 3.37684 28 7.82484C28 17.9348 20.628 21.9788 16 22.4648V18.0168C19.138 17.4508 22.666 14.2968 22.824 10.8168C22.666 10.8968 22.04 11.2228 21.254 11.2228Z" fill="#FFC107"/>
</svg>
