<svg width="21" height="20" viewBox="0 0 21 20" fill="none" xmlns="http://www.w3.org/2000/svg">
<path d="M7.85156 14.4219C6.96094 17.0703 3.42969 17.0703 3.42969 17.0703C3.42969 17.0703 3.42969 13.5391 6.07813 12.6484" stroke="#49475A" stroke-width="1.5" stroke-linecap="round" stroke-linejoin="round"/>
<path d="M15.8047 8.23495L10.5 13.5396L6.96094 10.0006L12.2656 4.69589C14.2734 2.68808 16.2812 2.71152 17.1406 2.83652C17.2732 2.85421 17.3963 2.91505 17.4909 3.00965C17.5855 3.10425 17.6464 3.22735 17.6641 3.35995C17.7891 4.21933 17.8125 6.22714 15.8047 8.23495Z" stroke="#49475A" stroke-width="1.5" stroke-linecap="round" stroke-linejoin="round"/>
<path d="M14.9219 9.11719V14.1641C14.9195 14.3289 14.8521 14.4862 14.7344 14.6016L12.2109 17.1328C12.1309 17.2128 12.0306 17.2695 11.9208 17.297C11.8111 17.3244 11.6959 17.3215 11.5876 17.2886C11.4794 17.2558 11.382 17.1941 11.3061 17.1102C11.2301 17.0264 11.1783 16.9235 11.1562 16.8125L10.5 13.5391" stroke="#49475A" stroke-width="1.5" stroke-linecap="round" stroke-linejoin="round"/>
<path d="M11.382 5.57812H6.33515C6.17029 5.58047 6.01304 5.64787 5.89765 5.76563L3.3664 8.28906C3.28643 8.36912 3.2297 8.46939 3.20226 8.57916C3.17481 8.68894 3.17768 8.8041 3.21057 8.91237C3.24345 9.02064 3.30511 9.11796 3.38896 9.19393C3.47282 9.2699 3.57573 9.32168 3.68671 9.34375L6.96015 10" stroke="#49475A" stroke-width="1.5" stroke-linecap="round" stroke-linejoin="round"/>
</svg>
